<svg version="1.1" xmlns="http://www.w3.org/2000/svg" viewBox="0 0 908 961.5510204081634" width="908" height="961.5510204081634" filter="invert(93%) hue-rotate(180deg)">
  <!-- svg-source:excalidraw -->
  
  <defs>
    <style>
      @font-face {
        font-family: "Virgil";
        src: url("https://excalidraw.com/Virgil.woff2");
      }
      @font-face {
        font-family: "Cascadia";
        src: url("https://excalidraw.com/Cascadia.woff2");
      }
    </style>
  </defs>
  <rect x="0" y="0" width="908" height="961.5510204081634" fill="#ffffff"></rect><g transform="translate(502 9.999999999999972) rotate(0 120.5 68.39795918367345)"><path d="M167.12990443751494 5.944471097901683 C181.39122025427406 7.952546875725179, 194.719704763394 13.137608244658281, 205.5369086665662 19.380491437014577 C216.35411256973842 25.623374629370872, 226.13305708536475 35.10803661116364, 232.03312785654822 43.40177025203945 C237.93319862773168 51.695503892915255, 241.1393246559737 60.35914672947862, 240.937333293667 69.14289328226944 C240.7353419313603 77.92663983506026, 236.98711349506416 88.11434996684929, 230.82117968270808 96.10424956878438 C224.655245870352 104.09414917071948, 215.04289256117377 111.08364864949158, 203.94173041953047 117.08229089388004 C192.84056827788717 123.0809331382685, 178.91059469944074 128.74157712507693, 164.2142068328483 132.0961030351152 C149.51781896625587 135.45062894515345, 131.4394293296138 137.53150386930014, 115.7634032199759 137.20944635410956 C100.08737711033801 136.88738883891898, 84.03829180195468 133.9041409949993, 70.15805017502096 130.16375794397163 C56.27780854808724 126.42337489294395, 43.10475477606403 121.12401545042809, 32.48195345837358 114.76714804794351 C21.859152140683136 108.41028064545893, 11.744143943530094 100.4805828134859, 6.421242268878302 92.0225535290641 C1.0983405942265092 83.5645242446423, -0.3723745239369123 72.91494366327024, 0.544543410462822 64.01897234141272 C1.4614613448625562 55.123001019555204, 5.149842955135242 46.445688900388156, 11.922749875276708 38.646725597918994 C18.695656795418174 30.847762295449837, 29.333165144194915 23.142123257114335, 41.18198493131162 17.225192526597766 C53.03080471842832 11.308261796081197, 68.19435762067938 6.078423769288747, 83.01566859797691 3.1451412148195743 C97.83697957527444 0.21185866035040135, 115.65729375453729 -0.6623717556640625, 130.1098507950968 -0.37450280021727167 C144.5624078356563 -0.0866338447704808, 162.93307719408017 3.3992874336270233, 169.73101084133395 4.87235494750032 C176.52894448858774 6.345422461373616, 171.88236002398673 7.165538401056861, 170.8974526786195 8.463902283022506 M91.35024637322815 1.0606321643978305 C104.8847158455536 -1.7268238166354322, 123.52416280759911 0.36201274257858773, 138.93581762625007 1.9877781918546873 C154.34747244490103 3.6135436411307866, 170.48735568779145 6.215180288836123, 183.82017528513393 10.815224860054428 C197.1529948824764 15.415269431272733, 209.61994168768288 22.287945800766632, 218.93273521030488 29.588045619164518 C228.24552873292689 36.8881454375624, 236.30340364167537 46.171093622296645, 239.69693642086588 54.61582377044174 C243.0904692000564 63.06055391858684, 242.56851500848524 71.46750710302126, 239.29393188544788 80.2564265080351 C236.01934876241052 89.04534591304895, 228.61991293552347 99.69141254226133, 220.04943768264167 107.34934020052482 C211.47896242975986 115.00726785878831, 200.4236825274658 121.25556684069642, 187.8710803681571 126.20399245761601 C175.3184782088484 131.1524180745356, 159.83205741244532 135.4433990513785, 144.73382472678952 137.03989390204237 C129.63559204113372 138.63638875270624, 112.79167519233977 137.76546723241697, 97.28168425422228 135.7829615615993 C81.7716933161048 133.80045589078165, 64.74690303350489 130.11766971575574, 51.673879098084655 125.14485987713643 C38.600855162664416 120.17205003851711, 27.39739915865629 113.68962916861815, 18.84354064170084 105.94610252988346 C10.28968212474539 98.20257589114877, 2.991854133370225 87.61070759697289, 0.3507279963519494 78.68370004472824 C-2.2903981406663263 69.7566924924836, -0.6657978708480385 60.86211009175771, 2.9967838195911867 52.38405721641561 C6.659365510030412 43.90600434107352, 13.145390278296114 35.02008775203616, 22.3262181389873 27.815382792675692 C31.50704599967849 20.610677833315222, 46.51685310004535 13.240357995759542, 58.0817509837383 9.155827460252802 C69.64664886743125 5.071296924746062, 86.0270884824998 4.263512347942818, 91.71560544114499 3.3081995796352572 C97.40412239979017 2.3528868113276964, 91.64641562954421 2.528737160900429, 92.21285273560936 3.4239508504074365" stroke="#000000" stroke-width="1" fill="none"></path></g><g transform="translate(558 19.499999999999915) rotate(0 65.5 52.000000000000014)"><text x="65.5" y="18" font-family="Virgil, Segoe UI Emoji" font-size="20px" fill="#000000" text-anchor="middle" style="white-space: pre;" direction="ltr">Player</text><text x="65.5" y="44" font-family="Virgil, Segoe UI Emoji" font-size="20px" fill="#000000" text-anchor="middle" style="white-space: pre;" direction="ltr">Clicked: </text><text x="65.5" y="70" font-family="Virgil, Segoe UI Emoji" font-size="20px" fill="#000000" text-anchor="middle" style="white-space: pre;" direction="ltr">Row[0]: True</text><text x="65.5" y="96" font-family="Virgil, Segoe UI Emoji" font-size="20px" fill="#000000" text-anchor="middle" style="white-space: pre;" direction="ltr">Col[0]: True</text></g><g transform="translate(598 283.1020408163265) rotate(0 77 63.897959183673464)"><path d="M51.544686818841946 3.740023471513773 C61.559367810494905 0.11035795905580548, 75.18321510375989 -0.09341977987569083, 86.64178687656343 1.3116847661606172 C98.10035864936697 2.7167893121969255, 110.53015129486258 6.694130893941061, 120.29611745566316 12.17065074773162 C130.06208361646375 17.64717060152218, 139.65626416356275 25.880392269031603, 145.23758384136698 34.170803888903976 C150.81890351917122 42.46121550877635, 153.45244716921042 52.2768733352094, 153.7840355224886 61.91312046696585 C154.1156238757668 71.5493675987223, 152.26739798171076 83.38667101243252, 147.22711396103617 91.98828667944268 C142.18682994036158 100.58990234645285, 132.85834092953823 107.89704821094283, 123.54233139844109 113.5228144690268 C114.22632186734397 119.14858072711077, 102.57687033972768 123.61896579355226, 91.33105677445342 125.74288422794652 C80.08524320917915 127.86680266234077, 67.14378850786744 128.57486019134788, 56.06745000679554 126.26632507539233 C44.99111150572364 123.95778995943678, 33.52706309399236 118.6424732087844, 24.873025768022003 111.89167353221322 C16.218988442051646 105.14087385564204, 8.225023293143419 94.92478616352165, 4.143226050973382 85.76152701596524 C0.061428808803346335 76.59826786840884, -1.020135557747416 66.4801761111193, 0.38224231500178973 56.91211864687482 C1.7846201877509955 47.34406118263035, 6.258985978551762 36.51798506970884, 12.557493287468617 28.353182230498376 C18.85600059638547 20.18837939128791, 29.699151911362446 12.449763246794593, 38.17328616850292 7.923301611612025 C46.64742042564339 3.3968399764294572, 57.53148362963634 2.205723169297806, 63.40229883031146 1.1944124194029655 C69.27311403098658 0.1831016695081249, 73.20178924764393 0.9697531843881926, 73.39817737255362 1.8554371122429814 M101.50593944265673 1.6775106214095388 C112.36289170696897 3.623895686430523, 123.86655044196263 11.726494227302556, 132.12349319473174 18.8444878227361 C140.38043594750084 25.96248141816964, 147.64242398678147 35.25170814096233, 151.0475959592714 44.3854721940108 C154.45276793176134 53.519236247059276, 154.31545818046052 64.2311019982027, 152.55452502967142 73.64707214102692 C150.79359187888232 83.06304228385115, 146.95697161158265 93.23310517305103, 140.48199705453675 100.8812930509561 C134.00702249749085 108.52948092886118, 123.89344943927749 115.19067608400036, 113.70467768739607 119.5361994084574 C103.51590593551465 123.88172273291445, 91.15317627740404 126.67634379977684, 79.34936654324824 126.95443299769838 C67.54555680909243 127.23252219561991, 53.21797189079521 125.38870202632137, 42.88181928246121 121.20473459598658 C32.545666674127204 117.02076716565179, 24.311768996224902 109.6211502514357, 17.332450893244207 101.85062841568963 C10.353132790263512 94.08010657994356, 3.557487203987865 84.09514548737596, 1.00591066457703 74.58160358151014 C-1.545665874833805 65.06806167564432, -1.137987919287049 53.67704459566425, 2.0229916567791975 44.7693769804947 C5.183971232845444 35.86170936532515, 11.839978833600805 28.13032593159463, 19.97178812097451 21.135597890492832 C28.103597408348215 14.140869849391034, 39.971059147654806 6.155008716804099, 50.81384738102142 2.8010087338839043 C61.65663561438803 -0.5529912490362903, 76.67089565759103 0.7631885231344656, 85.02851752117417 1.0115979929716659 C93.3861393847573 1.260007462808866, 98.57737507615396 3.656840759495502, 100.95957856252022 4.2914655529071055 C103.34178204888649 4.926090346318709, 99.6276070187956 3.9778227051078665, 99.32173843937174 4.8193467534412875" stroke="#000000" stroke-width="1" fill="none"></path></g><g transform="translate(625 295.60204081632645) rotate(0 44.5 52)"><text x="44.5" y="18" font-family="Virgil, Segoe UI Emoji" font-size="20px" fill="#000000" text-anchor="middle" style="white-space: pre;" direction="ltr">Square</text><text x="44.5" y="44" font-family="Virgil, Segoe UI Emoji" font-size="20px" fill="#000000" text-anchor="middle" style="white-space: pre;" direction="ltr">Row: Top</text><text x="44.5" y="70" font-family="Virgil, Segoe UI Emoji" font-size="20px" fill="#000000" text-anchor="middle" style="white-space: pre;" direction="ltr">Col: Left</text><text x="44.5" y="96" font-family="Virgil, Segoe UI Emoji" font-size="20px" fill="#000000" text-anchor="middle" style="white-space: pre;" direction="ltr">Filled</text></g><g><g transform="translate(543.4871924929283 124.87320689585334) rotate(185.94233347799582 -79.52511464928068 79.10341194645412)"><path d="M0.1401940841227769 -0.6913653094321489 C-26.486548025076505 25.570811892207406, -132.6010618734604 131.19495799420247, -159.1904233826841 157.45607661735082 M-1.2453427510522306 1.5600639577768742 C-27.54828322534379 28.02095979008793, -130.9759255707322 132.85942698743042, -156.94826593592342 158.89818920234035" stroke="#000000" stroke-width="1" fill="none"></path></g><g transform="translate(543.4871924929283 124.87320689585334) rotate(185.94233347799582 -79.52511464928068 79.10341194645412)"><path d="M-145.54109999717193 130.16231299637693 C-149.082401218328 139.30191523355663, -154.41472140744474 152.05793082529195, -155.01743702001448 157.94078904243003 M-144.75567233276533 131.54110156725037 C-149.7164770277192 142.2701620030702, -153.54501307101262 152.6996228128532, -157.37583914834585 159.51165235919694" stroke="#000000" stroke-width="1" fill="none"></path></g><g transform="translate(543.4871924929283 124.87320689585334) rotate(185.94233347799582 -79.52511464928068 79.10341194645412)"><path d="M-130.96705180561003 144.6093584277401 C-139.55878606977916 148.74560376356382, -149.95562355704658 156.48123582612502, -155.01743702001448 157.94078904243003 M-130.18162414120343 145.98814699861353 C-140.53081832921114 151.5244852154697, -149.7057572133177 156.65413339115443, -157.37583914834585 159.51165235919694" stroke="#000000" stroke-width="1" fill="none"></path></g></g><g transform="translate(271 283.10204081632645) rotate(0 77 63.89795918367349)"><path d="M56.4403638429951 2.06976137970252 C66.78353575816269 -1.2649130243906144, 81.51288315886507 -0.584300382217998, 92.88623202544467 1.4680708622921586 C104.25958089202427 3.520442106802315, 115.63151845372263 8.308740486792452, 124.68045704247275 14.383988846763458 C133.72939563122287 20.459237206734464, 142.2706089782896 29.36875628035603, 147.17986355794534 37.91956102211819 C152.08911813760108 46.470365763880345, 154.50947794445716 56.31235593590574, 154.13598452040713 65.6888172973364 C153.7624910963571 75.06527865876706, 150.60094540838998 85.73054527979644, 144.9389030136451 94.17832919070213 C139.27686061890023 102.62611310160781, 129.7620204151766 111.00945562115913, 120.16373015193793 116.37552076277052 C110.56543988869925 121.7415859043819, 98.85930275058543 124.99135180085759, 87.34916143421302 126.37472004037043 C75.8390201178406 127.75808827988328, 62.03215615007733 127.74553384302622, 51.10288225370343 124.67573019984764 C40.17360835732953 121.60592655666905, 29.786974327278266 114.86685141027438, 21.77351805596961 107.9558981812989 C13.760061784660957 101.04494495232343, 6.5430646343962575 92.48791867925424, 3.02214462585151 83.2100108259948 C-0.49877538269323773 73.93210297273536, -1.3430272390873614 61.991186669742305, 0.6479980047011225 52.28845106174229 C2.6390232484896066 42.58571545374228, 7.92083117540884 32.54341310673546, 14.968296088582413 24.993597177994744 C22.015761001755987 17.443781249254027, 34.985305291442074 10.816032084759994, 42.93278748374256 6.989555489297999 C50.88026967604304 3.1630788938360026, 58.6063445142735 3.0271622231375113, 62.653189242385324 2.034737605222766 C66.70003397049715 1.0423129873080206, 66.93661699379093 0.08871086616223545, 67.2138558524135 1.0350077818095258 M45.78072236871135 5.202403979401474 C55.703143164031346 0.9792745296791034, 71.23361561479393 0.9636612777451402, 82.79960336599316 1.464588437747672 C94.3655911171924 1.9655155977502035, 105.17236825228875 3.477033915270919, 115.17664887590674 8.207966939416664 C125.18092949952472 12.93889996356241, 136.38835336425865 21.509272693359115, 142.82528710770112 29.850186582622143 C149.26222085114358 38.19110047188517, 152.8675967361334 48.64516528131245, 153.79825133656146 58.25345027499485 C154.72890593698952 67.86173526867724, 152.67390997236657 78.9564102669091, 148.4092147102694 87.4998965447165 C144.14451944817222 96.04338282252391, 136.66089126944541 103.05504401344773, 128.21007976397834 109.51436794183924 C119.75926825851126 115.97369187023075, 108.93245170928593 123.31090119319737, 97.7043456774669 126.25584011506558 C86.47623964564788 129.2007790369338, 72.04354571255334 128.9339945108253, 60.841443573064204 127.18400147304854 C49.639341433575076 125.43400843527176, 39.5963631656807 121.65178110959741, 30.491732840532144 115.75588188840496 C21.387102515383585 109.8599826672125, 11.517393723347446 100.7985012936958, 6.21366162217285 91.80860614589383 C0.9099295209982534 82.81871099809187, -1.6305201627471295 71.76035202970334, -1.3306597665154385 61.81651100159322 C-1.0307993702837475 51.872669973483106, 2.045442227335326 40.358942079039394, 8.012823999562997 32.145559977233134 C13.980205771790668 23.932177875426873, 27.96407088477679 17.09387923267084, 34.473630866850584 12.536218390755657 C40.98319084892438 7.978557548840474, 44.942108823780856 5.696110044951357, 47.07018389200578 4.799594925742035 C49.1982589602307 3.9030798065327126, 46.74506960004443 6.157424376505884, 47.242081276200125 7.157127675499723" stroke="#000000" stroke-width="1" fill="none"></path></g><g transform="translate(302 291.60204081632645) rotate(0 44.5 52)"><text x="44.5" y="18" font-family="Virgil, Segoe UI Emoji" font-size="20px" fill="#000000" text-anchor="middle" style="white-space: pre;" direction="ltr">Square</text><text x="44.5" y="44" font-family="Virgil, Segoe UI Emoji" font-size="20px" fill="#000000" text-anchor="middle" style="white-space: pre;" direction="ltr">Row: Top</text><text x="44.5" y="70" font-family="Virgil, Segoe UI Emoji" font-size="20px" fill="#000000" text-anchor="middle" style="white-space: pre;" direction="ltr">Col: Left</text><text x="44.5" y="96" font-family="Virgil, Segoe UI Emoji" font-size="20px" fill="#000000" text-anchor="middle" style="white-space: pre;" direction="ltr">Empty</text></g><g><g transform="translate(426.5540148091824 337.7892515396341) rotate(0 80.78184298977078 2.2827108149791684)"><path d="M-0.7077183108776808 -0.6705843765288592 C25.813227939055647 -0.014236648656973716, 132.95060682468755 3.0416204736727006, 160.07313045194022 4.039548783209625 M1.1215908465720714 1.5917548804543915 C27.92600022471451 2.386764390471777, 135.49599471772726 4.95060539463262, 162.27140429041927 5.236006006487164" stroke="#000000" stroke-width="1" fill="none"></path></g><g transform="translate(426.5540148091824 337.7892515396341) rotate(0 80.78184298977078 2.2827108149791684)"><path d="M132.77940574710783 13.346721823745996 C143.55895973970192 13.079654152161153, 156.4406090417401 9.299463048812509, 161.23668689638023 6.392678348236236 M133.71813420349326 14.708040005014867 C144.05945724916177 11.110013059396312, 155.43583992923217 7.975513175316154, 162.33292852420007 5.072294839546535" stroke="#000000" stroke-width="1" fill="none"></path></g><g transform="translate(426.5540148091824 337.7892515396341) rotate(0 80.78184298977078 2.2827108149791684)"><path d="M133.1560622565163 -7.171029813793625 C143.81022877489633 0.3349736470091562, 156.54914243062385 4.330075065286633, 161.23668689638023 6.392678348236236 M134.09479071290173 -5.809711632524754 C144.1065066192707 -1.480395985796826, 155.33730009737235 3.3158394618818807, 162.33292852420007 5.072294839546535" stroke="#000000" stroke-width="1" fill="none"></path></g></g><g transform="translate(344 168.9999999999999) rotate(0 67.5 26)"><text x="0" y="18" font-family="Virgil, Segoe UI Emoji" font-size="20px" fill="#000000" text-anchor="start" style="white-space: pre;" direction="ltr">onclick(Player)</text><text x="0" y="44" font-family="Virgil, Segoe UI Emoji" font-size="20px" fill="#000000" text-anchor="start" style="white-space: pre;" direction="ltr"></text></g><g transform="translate(30 327.99999999999994) rotate(0 12 12.5)"><path d="M5.400077822134223 2.04419004725919 C5.400077822134223 2.04419004725919, 5.400077822134223 2.04419004725919, 5.400077822134223 2.04419004725919 M5.400077822134223 2.04419004725919 C5.400077822134223 2.04419004725919, 5.400077822134223 2.04419004725919, 5.400077822134223 2.04419004725919 M2.6175775276083653 11.473003200846291 C6.5186062290344715 6.1903466268660265, 9.553320270228205 4.727931380091897, 10.834692657659504 0.916074165341543 M2.4424264966096882 11.357585863708085 C5.8719256297273486 7.571450034452729, 9.728630613301883 3.308906687105072, 11.726704882471564 0.838178068318503 M0.46245981426037 17.366000466968536 C4.507777912535844 13.816166970429322, 8.348148749853934 7.971299823170088, 14.333084164233336 2.8521363730289506 M2.979422180858097 18.156398505845708 C6.955745060382583 11.319300200788062, 11.879481723590779 7.2609605789890255, 14.019551574158871 3.720480888544442 M4.763150568106573 22.469125740328863 C10.214458971048026 16.27058780019467, 12.972920572250157 10.22852529681202, 19.858342752479 4.128901999830498 M5.562222069115739 20.449550953792468 C11.237196574011419 14.965735004549702, 16.500097022891374 7.475304465800342, 19.455422188773735 4.750371382958486 M4.488831962589368 23.87556316366713 C12.67966806430513 19.296268937646406, 16.606759977749824 9.827398188190546, 21.928160630295622 7.20723248731002 M7.202634697910591 25.847399854458082 C12.103342044296788 19.344120980420193, 15.879800653289287 13.604227674351204, 22.39246592217927 5.687977002855686 M13.935574584337495 22.56781604471573 C14.528912560304608 21.70011991743514, 20.536425003491267 16.52066874902171, 23.531294517734555 12.103055377073664 M12.924160571791775 24.602016450278025 C14.644057266391057 21.20353615188478, 18.100137837757472 18.593096690110375, 23.574152654692064 12.008184453101906 M17.086759221729963 25.32090003675961 C19.584302172231205 23.586589045479222, 21.036864283929813 20.794369663190896, 23.126329487328025 19.196308891720946 M16.692810032087518 25.099566806333076 C18.57740031366606 23.90485972526211, 20.038048710023553 21.985174296054915, 22.77671226402612 18.72332288558955" stroke="#fa5252" stroke-width="0.5" fill="none"></path><path d="M12.23535095575474 0.8132115431278866 C14.694794955201408 0.9729869324058491, 18.145738127914033 1.8916085205341826, 19.98791506962591 3.5640153350988015 C21.830092011337786 5.2364221496634205, 22.986823383269197 8.073551223297667, 23.288412606026004 10.8476524305156 C23.59000182878281 13.621753637733534, 23.282070669786805 18.076824995270076, 21.797450406166753 20.208622578406406 C20.3128301425467 22.340420161542735, 17.029930387982304 22.907197691450627, 14.380691024305698 23.63843792933358 C11.73145166062909 24.369678167216534, 7.962281220530162 25.655797755573577, 5.902014224107116 24.59606400570413 C3.841747227684071 23.53633025583468, 2.8900044730906003 19.769485284301435, 2.0190890457674247 17.28003543011689 C1.148173618444249 14.790585575932345, 0.1574945216893836 12.147514421419146, 0.6765216601680635 9.659364880596863 C1.1955487986467435 7.17121533977458, 2.646806823098848 3.875306498448823, 5.133251876639504 2.3511381851831903 C7.61969693018016 0.8269698719175576, 13.548101049516482 0.5801830953946379, 15.595191981411997 0.5143550010030662 C17.64228291330751 0.4485269066114945, 17.371391642650224 1.884277223279658, 17.415797468012585 1.9561696188337603 M8.599067781007362 -1.1113838846353534 C10.804307907271678 -1.7724709615914023, 14.488426813622048 -0.6481234787229468, 16.84238734600069 0.69016945523164 C19.196347878379335 2.0284623891862266, 21.411812674142237 4.0936039548226635, 22.72283097527922 6.918373719092169 C24.033849276416202 9.743143483361674, 25.422234659125053 15.097141693882097, 24.708497152822584 17.638788040848674 C23.994759646520116 20.18043438781525, 21.037081246975742 21.130136424504933, 18.440405937464398 22.168251800891632 C15.843730627953056 23.20636717727833, 11.655667413651411 24.055287917616493, 9.128445295754528 23.86748029916886 C6.601223177857644 23.67967268072123, 4.589045510061771 22.976740281634306, 3.277073230083097 21.04140609020584 C1.9651009501044234 19.106071898777373, 1.212428391899009 14.948485527098583, 1.2566116158824858 12.25547515059805 C1.3007948398659626 9.562464774097517, 2.024304330301259 6.876753986634688, 3.542172573983958 4.883343831202638 C5.060040817666657 2.889933675770589, 9.286857439483242 1.0130572589289364, 10.36382107797868 0.295014218005754 C11.440784716474116 -0.4230288229174284, 9.953891711524268 0.3286068998965801, 10.003954404956575 0.575085585663544" stroke="#000000" stroke-width="1" fill="none"></path></g><g><g transform="translate(58 339.99999999999994) rotate(0 104.07548260472714 2.487691816166034)"><path d="M1.0282664101570844 1.0478846926242114 C35.75400775286059 1.7082383333394926, 173.71140669596693 2.912621019159754, 208.04199766330422 3.269205357506871 M0.1089675461500883 0.5524202109128238 C34.70770180496077 1.413827261204521, 172.23627634239693 3.8353238424410425, 207.1160009729117 4.422963421419263" stroke="#000000" stroke-width="1" fill="none"></path></g><g transform="translate(58 339.99999999999994) rotate(0 104.07548260472714 2.487691816166034)"><path d="M180.49736462505516 14.261300598274735 C185.36028018652758 9.62510860638363, 192.99489821038836 8.825222404240371, 207.3172328530252 6.0870483793318275 M179.34561594827082 14.200923541564313 C186.1607229702738 11.75098256376346, 193.6211479452746 9.434415268191719, 207.63764543946832 4.723008575476706" stroke="#000000" stroke-width="1" fill="none"></path></g><g transform="translate(58 339.99999999999994) rotate(0 104.07548260472714 2.487691816166034)"><path d="M180.8545713187264 -6.256798869362017 C185.5011479080915 -5.268740843971305, 193.0379047048334 -0.4474378925376268, 207.3172328530252 6.0870483793318275 M179.70282264194208 -6.317175926072439 C186.5672442312763 -3.5913011273119078, 193.93756375712 -0.7321743467727275, 207.63764543946832 4.723008575476706" stroke="#000000" stroke-width="1" fill="none"></path></g></g><g><g transform="translate(760.4223564649938 352.17070785713594) rotate(0 49.467677132921494 -1.2015109761151734)"><path d="M-0.19435487799346451 -0.10431562252342697 C16.68301677847164 -0.6252794133654257, 83.89443026752558 -1.7975213627174598, 100.69088418412252 -2.2987063297069197 M-1.7555299182794988 -1.204685269687325 C14.994789405426705 -1.6088036655603373, 82.72713147106927 -0.6677251051209973, 99.6276459356141 -0.8522000798209137" stroke="#000000" stroke-width="1" fill="none"></path></g><g transform="translate(760.4223564649938 352.17070785713594) rotate(0 49.467677132921494 -1.2015109761151734)"><path d="M71.23522854065337 8.966065680183219 C78.16758344160213 6.265633436490967, 83.93036982040928 3.091318952217911, 100.01171208706914 -1.5950031933559603 M70.86010033571907 9.152485296636568 C80.43936728953024 5.805245181685624, 88.71254068837095 3.844635146377674, 99.13252745823233 -0.716221775039894" stroke="#000000" stroke-width="1" fill="none"></path></g><g transform="translate(760.4223564649938 352.17070785713594) rotate(0 49.467677132921494 -1.2015109761151734)"><path d="M71.29099553001518 -11.555067144998164 C78.35072268950442 -9.079725228214302, 84.09944345205314 -7.078175230457801, 100.01171208706914 -1.5950031933559603 M70.91586732508088 -11.368647528544814 C80.52005826902659 -8.405214088710533, 88.77608079086097 -4.054645608866496, 99.13252745823233 -0.716221775039894" stroke="#000000" stroke-width="1" fill="none"></path></g></g><g transform="translate(434 301.99999999999994) rotate(0 67.5 13)"><text x="0" y="18" font-family="Virgil, Segoe UI Emoji" font-size="20px" fill="#000000" text-anchor="start" style="white-space: pre;" direction="ltr">onclick(Player)</text></g><g transform="translate(871 339.49999999999994) rotate(0 12 12.5)"><path d="M2.148734259008958 5.842905174494298 C2.148734259008958 5.842905174494298, 2.148734259008958 5.842905174494298, 2.148734259008958 5.842905174494298 M2.148734259008958 5.842905174494298 C2.148734259008958 5.842905174494298, 2.148734259008958 5.842905174494298, 2.148734259008958 5.842905174494298 M-0.8819749094408866 14.420969181313184 C4.5758314643926425 10.266266458730993, 7.164133044503345 6.674041093430768, 9.236223266100279 3.2636310138841176 M0.6243890819742415 14.117198780962271 C3.9079909878276515 10.789830899506246, 5.847322784419929 7.633556865382481, 10.18213040788076 3.1472718994700366 M3.618241692995154 16.036331734721944 C7.096229815385595 13.206775278967708, 8.58102691690591 11.722822890423291, 17.255513681423036 -0.18957246404394557 M3.917158305746936 17.040145875987992 C6.534606720058548 13.893682671630838, 9.23527289010205 10.113058778028142, 17.48181136264291 1.425797700581401 M7.280532715566665 20.146028647318335 C9.372219954400773 15.660797680373678, 13.622097218106742 10.624522225521307, 18.674314248732124 3.012260495160729 M4.686436596051067 20.532243509895952 C10.060155992451326 15.576570992826856, 13.197499841481587 9.52242664848078, 19.2157338488687 3.877778687921375 M5.994682876261923 25.928279912476366 C9.654561504993474 18.693247756926652, 13.417574696070888 15.750115141261462, 22.600463594177224 5.066864876950248 M6.651308956424746 23.925795452115064 C14.13470803985382 16.806342129931554, 18.978797414459343 9.354207645017771, 22.88128814087943 6.748558739142581 M11.755659319901477 27.54164325757635 C13.12403978669781 24.127717489413637, 16.934322808578127 19.42144161704477, 24.636122578785198 9.56175119451483 M11.273553300298389 25.101970996891456 C15.03811101444727 20.363260792626093, 19.223607807344113 15.840489015054315, 24.317178699730338 11.421765337402498" stroke="#fa5252" stroke-width="0.5" fill="none"></path><path d="M8.663282664743718 0.2650385516393854 C10.870534649804739 -0.972678275429312, 13.431559111592604 -0.989368580372322, 15.765931419282676 -0.0684891720535159 C18.10030372697275 0.8523902362652902, 21.2644349556711 3.4719039461265293, 22.669516510884158 5.790315001552222 C24.074598066097217 8.108726056977915, 24.8576410591175 11.220699122694986, 24.196420750561018 13.84197716050064 C23.535200442004534 16.463255198306296, 20.63720550699346 19.69011286823715, 18.702194659545263 21.51798322838615 C16.767183812097066 23.34585358853515, 14.937552095997358 24.70258255262575, 12.586355665871846 24.809199321394637 C10.235159235746334 24.915816090163524, 6.6354081033788965 23.899501827942558, 4.595016078792197 22.157683840999482 C2.554624054205498 20.415865854056406, 0.800526577991187 17.021272359282804, 0.34400351835165033 14.358291399736178 C-0.11251954128788633 11.69531044018955, 0.3372501697543555 8.601829902342004, 1.855877720954977 6.179798083719715 C3.3745052721555986 3.7577662650974246, 8.180852710954056 0.8364939332276777, 9.45576882555538 -0.17389951199756126 C10.730684940156703 -1.1842929572228003, 9.549833750170187 -0.08719849438213276, 9.505374408562911 0.11743741236828065 M10.72518262498585 1.2954407487388409 C12.744510762640875 0.5409650999207716, 14.269470622211074 0.5635611386058758, 16.250884634618682 1.4347239499687596 C18.23229864702629 2.3058867613316436, 21.63780091422054 4.232917937535365, 22.613666699431498 6.522417616916144 C23.589532484642454 8.811917296296922, 22.942708926919668 12.273088596947998, 22.10607934588441 15.171722026253427 C21.269449764849153 18.070355455558854, 19.4430295444847 22.543090195023577, 17.593889213219953 23.914218192748717 C15.744748881955209 25.285346190473856, 13.246149988525634 24.100826121450396, 11.011237358295945 23.398490012604256 C8.776324728066257 22.696153903758116, 5.936609773957942 21.258248632699377, 4.184413431841817 19.700201539671887 C2.4322170897256914 18.142154446644398, 0.8245781612692233 16.70131786446709, 0.49805930559919176 14.050207454439317 C0.17154044992916023 11.399097044411544, 0.5972104155075524 6.304249366610742, 2.2253002978216276 3.7935390795052486 C3.853390180135703 1.282828792399755, 9.048644766813378 -0.47217578188891884, 10.266598599483643 -1.0140542681936449 C11.484552432153908 -1.5559327544983708, 9.594295527815941 0.23935675980987597, 9.53302329384322 0.5422681616768923" stroke="#000000" stroke-width="1" fill="none"></path></g><g transform="translate(10 285.99999999999994) rotate(0 28.5 13)"><text x="0" y="18" font-family="Virgil, Segoe UI Emoji" font-size="20px" fill="#000000" text-anchor="start" style="white-space: pre;" direction="ltr">Start</text></g><g transform="translate(864 306.99999999999994) rotate(0 17 13)"><text x="0" y="18" font-family="Virgil, Segoe UI Emoji" font-size="20px" fill="#000000" text-anchor="start" style="white-space: pre;" direction="ltr">End</text></g><g transform="translate(503 538.5510204081631) rotate(0 120.5 68.39795918367344)"><path d="M85.27512480669705 2.861418340404839 C98.8125197857494 -0.47871057472664935, 116.36553615961161 -0.28088313831052625, 131.66046630580453 0.5477470477823374 C146.95539645199744 1.3763772338752012, 163.33787559882342 3.7201523889799715, 177.04470568385457 7.833199456962021 C190.75153576888573 11.946246524944069, 204.17932928991704 18.410308540973354, 213.90144681599145 25.226029455674635 C223.62356434206586 32.041750370375915, 231.1164787531289 40.019594873710425, 235.37741084030102 48.7275249451697 C239.63834292747316 57.43545501662897, 241.0585045939741 68.50487969271279, 239.46703933902427 77.47360988443029 C237.87557408407443 86.44234007614779, 233.54673477165682 94.98240214534505, 225.82861931060202 102.53990609547465 C218.11050384954723 110.09741004560425, 205.61181247196168 117.59786757732753, 193.1583465726956 122.81863358520789 C180.7048806734295 128.03939959308826, 166.16724226919416 131.73234230452078, 151.1078239150054 133.8645021427568 C136.04840556081666 135.99666198099283, 118.30718874790152 136.7751119169666, 102.801836447563 135.61159261462393 C87.29648414722449 134.44807331228125, 71.27678631150354 131.37691421834757, 58.075710112974356 126.8833863287007 C44.87463391444516 122.38985843905382, 32.60106129818841 115.79273588586015, 23.595379256387858 108.65042527674268 C14.589697214587302 101.50811466762521, 7.5525373388582135 92.62812177223756, 4.041617862171023 84.02952267399583 C0.530698385483833 75.4309235757541, 0.1367588771980741 65.67740142081985, 2.5298623962647184 57.058830687292236 C4.922965915331362 48.44025995376463, 10.412789903015693 39.57996276117755, 18.40023897657089 32.31809827283019 C26.387688050126087 25.056233784482835, 37.587830142067475 18.714834426999445, 50.4545568375959 13.48764375720809 C63.32128353312433 8.260453087416735, 86.39518742742007 2.976286843123449, 95.60059914974147 0.9549542540820681 C104.80601087206287 -1.0663783349593126, 105.54229179082034 0.09701022749476107, 105.6870271715243 1.3596482229598053 M112.26405892923226 1.0331502336418197 C126.82450072401856 -0.8906216431158, 142.70971734920167 -0.5234939279755992, 157.56063949997426 2.1823890447342222 C172.41156165074685 4.888272017444043, 189.45267271126943 11.424990896334702, 201.36959183386776 17.26844806990075 C213.2865109564661 23.111905243466797, 222.2970912108486 29.442373836421837, 229.06215423556424 37.243132086130515 C235.82721726027987 45.043890335839194, 241.32585122129058 55.16569022596086, 241.9599699821615 64.07299756815281 C242.59408874303244 72.98030491034477, 238.0790728807574 82.10952695227454, 232.8668668007898 90.68697613928224 C227.65466072082222 99.26442532628994, 220.81750878175416 108.70609633925613, 210.6867335023559 115.53769269019898 C200.55595822295766 122.36928904114183, 186.32988689225706 127.89274740352876, 172.0822151244004 131.6765542449393 C157.83454335654372 135.46036108634982, 140.78745326360053 138.1428974375413, 125.20070289521594 138.24053373866218 C109.61395252683137 138.33817003978305, 93.21971985573668 135.8452084146362, 78.56171291409296 132.26237205166458 C63.903705972449245 128.67953568869297, 48.74461598765489 122.95954705245246, 37.25266124535362 116.74351556083244 C25.760706503052354 110.5274840692124, 15.724620553607934 102.91314874104086, 9.60998446028536 94.96618310194444 C3.495348366962787 87.01921746284802, 0.5320189167402987 77.74100313029048, 0.5648446854181799 69.06172172625388 C0.5976704540960611 60.38244032221727, 4.089375795018934 51.01444891038258, 9.806939072352648 42.8904946777248 C15.524502349686362 34.76654044506702, 23.808308249833274 26.635061253848463, 34.87022434942047 20.317996330307196 C45.93214044900766 14.000931406765929, 63.16582066655054 8.561587654777734, 76.1784356698758 4.988105136477202 C89.19105067320105 1.41462261817667, 107.00315184215735 -0.3544766814526502, 112.945914369372 -1.1228987794959977 C118.88867689658666 -1.891320877539345, 111.94783669037243 -1.1763638297875108, 111.83501083316374 0.37757254821711683" stroke="#000000" stroke-width="1" fill="none"></path></g><g transform="translate(533.5 548.0510204081631) rotate(0 91 52)"><text x="91" y="18" font-family="Virgil, Segoe UI Emoji" font-size="20px" fill="#000000" text-anchor="middle" style="white-space: pre;" direction="ltr">Player</text><text x="91" y="44" font-family="Virgil, Segoe UI Emoji" font-size="20px" fill="#000000" text-anchor="middle" style="white-space: pre;" direction="ltr">Clicked: </text><text x="91" y="70" font-family="Virgil, Segoe UI Emoji" font-size="20px" fill="#000000" text-anchor="middle" style="white-space: pre;" direction="ltr">Row[0]: unchanged</text><text x="91" y="96" font-family="Virgil, Segoe UI Emoji" font-size="20px" fill="#000000" text-anchor="middle" style="white-space: pre;" direction="ltr">Col[0]: unchanged</text></g><g><g transform="translate(535.5703772031679 655.1470077829158) rotate(185.94233347799582 -63.312586570667406 54.542471041245335)"><path d="M-0.762138183787465 0.4277303952723741 C-21.741743664588256 18.56450790266628, -105.7059055842247 90.39625010244225, -126.59703106929794 108.35090137387424 M1.03860054038465 -0.3933150925487281 C-20.055861746217534 17.920589575871176, -106.36783808273934 91.25261430166339, -127.66377368171945 109.47825717503935" stroke="#000000" stroke-width="1" fill="none"></path></g><g transform="translate(535.5703772031679 655.1470077829158) rotate(185.94233347799582 -63.312586570667406 54.542471041245335)"><path d="M-112.15508741294295 83.00385023224902 C-117.82367792427064 89.98817704634864, -121.70085141595507 94.99096040301667, -128.74501649824217 108.80626080694407 M-111.91840379559696 83.958743140472 C-115.76062192141978 87.75514631770842, -118.88688748394182 93.75520006165206, -128.33259934441432 108.59469323090076" stroke="#000000" stroke-width="1" fill="none"></path></g><g transform="translate(535.5703772031679 655.1470077829158) rotate(185.94233347799582 -63.312586570667406 54.542471041245335)"><path d="M-98.84143969539139 98.62008495252564 C-107.64484052439036 101.77117526531582, -114.71795716492456 103.02527911476639, -128.74501649824217 108.80626080694407 M-98.6047560780454 99.57497786074862 C-105.0199604150899 100.10822773863667, -110.85110364925515 102.93559691812916, -128.33259934441432 108.59469323090076" stroke="#000000" stroke-width="1" fill="none"></path></g></g><g transform="translate(289 766.6530612244896) rotate(0 77 63.89795918367349)"><path d="M51.967649548376656 2.813617627004966 C61.93650576034607 -1.0326135390117366, 76.2287495238598 -1.6629064544765508, 87.62314686359761 -0.31784538732703993 C99.01754420333542 1.027215679822471, 110.63184251251695 5.1107035112527965, 120.33403358680349 10.883984029902031 C130.03622466109002 16.657264548551264, 140.17312330202697 25.871019109521328, 145.83629330931683 34.32183772456837 C151.4994633166067 42.77265633961541, 154.16706339957943 52.09618252069589, 154.31305363054275 61.588895720184276 C154.45904386150607 71.08160891967266, 151.86661862864196 82.61085266584752, 146.71223469509675 91.27811692149868 C141.55785076155155 99.94538117714984, 132.67770178185913 107.81049736173843, 123.3867500292715 113.59248125409124 C114.09579827668388 119.37446514644405, 102.27481980589152 123.99637891179236, 90.96652417957102 125.97002027561552 C79.65822855325052 127.94366163943869, 66.6400750056543 127.85593996547982, 55.53697627134848 125.43432943703023 C44.43387753704267 123.01271890858064, 32.874424424131455 117.8304238552781, 24.347931773736143 111.44035710491798 C15.82143912334083 105.05029035455786, 8.417553884162437 96.20760566846863, 4.378020368976607 87.0939289348695 C0.3384868537907755 77.98025220127036, -1.2983866474103536 66.57512316442339, 0.11073068262115271 56.75829670332321 C1.519848012652659 46.941470242223026, 6.242417295175987 36.074221817078794, 12.832724349165645 28.19297016826839 C19.423031403155303 20.31171851945798, 32.05157395499138 13.730988417549796, 39.652573006559095 9.470786810460766 C47.25357205812681 5.2105852033717355, 54.123038365301916 4.011098781325576, 58.43871865857192 2.631760525734208 C62.75439895184193 1.2524222701428396, 65.09871216385014 0.32982414453972686, 65.54665476617913 1.1947572769125543 M51.93331938918765 2.399119492745328 C61.653299467070795 -1.4722770911699556, 73.83450356566173 0.28113005744498065, 85.21967679789738 1.717110286122093 C96.60485003013302 3.1530905147992057, 110.63612144032219 5.6555487905433965, 120.2443587826015 11.015000864808002 C129.8525961248808 16.374452939072608, 137.37331207634557 25.667575383043015, 142.86910085157322 33.87382273170972 C148.36488962680087 42.08007008037643, 152.65967190328928 50.59352389976593, 153.21909143396738 60.25248495680823 C153.77851096464548 69.91144601385054, 150.76249563249408 82.67898456904497, 146.22561803564173 91.82758907396354 C141.68874043878938 100.9761935788821, 134.7143068649443 109.23334030484634, 125.99782585285335 115.14411198631963 C117.28134484076242 121.05488366779292, 105.16138154484429 125.34626370479913, 93.92673196309615 127.29221916280329 C82.692082381348 129.23817462080746, 69.9650563477249 129.42728748032397, 58.58992836236453 126.81984473434464 C47.21480037700416 124.21240198836531, 34.73248441096251 118.30763236120148, 25.675964050933928 111.64756268692733 C16.619443690905342 104.98749301265318, 8.576336919367542 95.73771950399463, 4.250806202193033 86.85942668869967 C-0.07472451498147592 77.98113387340472, -1.5386948285227622 67.74389944791142, -0.27722025211312484 58.37780579515761 C0.9842543242965125 49.011712142403816, 5.476570199338512 38.94588597873192, 11.819653660650857 30.662864772176874 C18.162737121963204 22.37984356562183, 31.193586894250096 12.95789585185154, 37.78128051576095 8.679678555827344 C44.3689741372718 4.401461259803148, 49.05794833660586 5.398679774980523, 51.345815389715966 4.993560996031697 C53.63368244282607 4.5884422170828705, 51.33800399345486 5.452182326010799, 51.50848283442156 6.248965882134385" stroke="#000000" stroke-width="1" fill="none"></path></g><g transform="translate(320 775.1530612244896) rotate(0 44.5 52)"><text x="44.5" y="18" font-family="Virgil, Segoe UI Emoji" font-size="20px" fill="#000000" text-anchor="middle" style="white-space: pre;" direction="ltr">Square</text><text x="44.5" y="44" font-family="Virgil, Segoe UI Emoji" font-size="20px" fill="#000000" text-anchor="middle" style="white-space: pre;" direction="ltr">Row: Top</text><text x="44.5" y="70" font-family="Virgil, Segoe UI Emoji" font-size="20px" fill="#000000" text-anchor="middle" style="white-space: pre;" direction="ltr">Col: Left</text><text x="44.5" y="96" font-family="Virgil, Segoe UI Emoji" font-size="20px" fill="#000000" text-anchor="middle" style="white-space: pre;" direction="ltr">Filled</text></g><g><g transform="translate(446.14141597839705 841.1210377653499) rotate(0 26.564565831033462 38.77476016577566)"><path d="M-0.7810846667736768 0.2620501678436995 C7.766101017560799 13.11940006141318, 42.90758925212542 64.1266962664551, 51.71084450127923 76.91800955418962 M1.0097071538306772 -0.6459774393774569 C9.886014688298095 12.392200221444943, 45.58980801388616 65.06854521920671, 53.91021632884064 78.19549777092877" stroke="#000000" stroke-width="1" fill="none"></path></g><g transform="translate(446.14141597839705 841.1210377653499) rotate(0 26.564565831033462 38.77476016577566)"><path d="M30.26437262907138 58.67890600113008 C37.051903406994995 65.38611932925407, 45.288286954452886 70.5351327278047, 52.22105805497983 76.83646023566368 M29.000504897865262 60.51965295055691 C39.31341862143612 66.62246553681128, 48.07063914299981 73.84166147213823, 53.224582035247174 77.94251172071787" stroke="#000000" stroke-width="1" fill="none"></path></g><g transform="translate(446.14141597839705 841.1210377653499) rotate(0 26.564565831033462 38.77476016577566)"><path d="M47.39767867440625 47.38422467128588 C48.41323455543362 57.770910918811005, 50.89892330869991 66.71091859212237, 52.22105805497983 76.83646023566368 M46.13381094320013 49.22497162071271 C49.74510151241345 59.84587994896253, 51.73540697400383 71.52598663824949, 53.224582035247174 77.94251172071787" stroke="#000000" stroke-width="1" fill="none"></path></g></g><g transform="translate(335 676.5510204081631) rotate(0 67.5 13)"><text x="0" y="18" font-family="Virgil, Segoe UI Emoji" font-size="20px" fill="#000000" text-anchor="start" style="white-space: pre;" direction="ltr">onclick(Player)</text></g><g transform="translate(48 811.5510204081634) rotate(0 12 12.5)"><path d="M1.4989034279332936 6.603028844564937 C1.4989034279332936 6.603028844564937, 1.4989034279332936 6.603028844564937, 1.4989034279332936 6.603028844564937 M1.4989034279332936 6.603028844564937 C1.4989034279332936 6.603028844564937, 1.4989034279332936 6.603028844564937, 1.4989034279332936 6.603028844564937 M0.6477343982682444 15.363132132271517 C1.1222185807700868 10.634772106979183, 4.428400589598763 9.42348474486844, 10.66016753437283 1.0414773407573357 M-0.6584467665626786 14.2921245787835 C2.698357597275458 11.439357555183054, 5.3575742333626 8.072608600019455, 10.059506641796851 1.7395318056637898 M2.7135313254025863 18.886446178271733 C5.918411981057537 15.039936009868526, 9.86697750365363 8.772515179697544, 13.773057876208396 4.310522524549788 M0.7364428786737012 18.85003412825551 C6.986275871362511 12.976749693978125, 11.30037251355079 9.091445628986849, 15.994830104576023 3.477758058256632 M4.594906133984837 20.389577615404257 C9.917236686448963 14.861833113410562, 15.067796788794546 9.173235370803022, 17.83750120547799 4.573922117376303 M4.907363968355272 21.04170051063759 C9.675146965201986 15.8419889878117, 16.410472381868207 8.104612847174893, 19.577187520425895 2.9720309676095598 M7.704996366881115 22.45476015271136 C15.098513846963918 18.996938466161588, 20.97663451704887 9.7639841979448, 21.05409230013083 4.922300486737227 M7.278829896718545 22.973078935271886 C11.349809603094513 18.68030643902223, 16.240555613518026 13.21871026125062, 21.91074989922981 6.641266593621409 M13.85679817088215 25.599093507134548 C16.536142467476296 21.24097473239791, 20.667403223123834 14.261681210425559, 25.73720751892917 7.856675483905768 M11.334765765632376 24.57285969527178 C14.083856473665623 21.519946600602715, 19.048625185130643 18.165664918570428, 26.727892867328155 9.22912805123726" stroke="#fa5252" stroke-width="0.5" fill="none"></path><path d="M7.951050406175889 -0.225618458735795 C10.47829729117793 -0.8011041696867943, 15.392429336834445 0.6180868318723087, 17.928237708698987 1.704677138908096 C20.464046080563527 2.791267445943883, 22.18216947243146 3.9941771207525325, 23.165900637363137 6.293923383478928 C24.149631802294813 8.593669646205324, 24.642023804005518 12.919734806937694, 23.830624698289043 15.50315471526647 C23.019225592572568 18.086574623595247, 20.51248222515485 20.332365134866226, 18.297506003064285 21.794442833451587 C16.08252978097372 23.256520532036948, 13.034641705726152 24.320675696778665, 10.540767365745651 24.275620906778634 C8.04689302576515 24.230566116778604, 5.134671145245938 23.175369944394422, 3.3342599631812764 21.52411409345141 C1.5338487811166148 19.872858242508396, 0.013472990323100398 16.89027270483143, -0.261699726642318 14.368085801120554 C-0.5368724436077363 11.845898897409679, 0.09829461758635571 8.733081268797065, 1.683223661388766 6.390992671186161 C3.2681527051911763 4.048904073575256, 7.746913436467978 1.4252802416174666, 9.247874536172143 0.3155542154551316 C10.748835635876308 -0.7941718107072033, 10.420439408411378 -0.6244382314100998, 10.688990259613751 -0.26736348578784863 M7.1136576934121365 1.0189981546526425 C9.127019714665213 0.043966730800670706, 13.597367704314468 -1.1800316976062455, 16.198770049792948 -0.1509772627065562 C18.800172395271428 0.8780771721931331, 21.32155143138302 4.886864253026557, 22.722071766283012 7.193324764050779 C24.122592101183002 9.499785275075, 25.37717775137795 10.967298487910767, 24.601892059192892 13.687785803438771 C23.826606367007834 16.408273118966775, 20.19443501543048 21.61576769028612, 18.070357613172654 23.516248657218803 C15.94628021091483 25.416729624151486, 14.424028552141758 25.18112559090766, 11.857427645645952 25.090671605034874 C9.290826739150146 25.00021761916209, 4.744967850896254 24.939228154169964, 2.6707521741978164 22.973524741982096 C0.5965364974993785 21.00782132979423, -0.2975032860851819 15.892226197698584, -0.5878664145446759 13.296451131907661 C-0.87822954300417 10.700676066116738, -0.6826882250120718 9.280085322876086, 0.9285734034408524 7.398874347236559 C2.5398350318937766 5.517663371597031, 7.669152633709069 2.95302905890004, 9.07970335617287 2.009185278070497 C10.490254078636669 1.0653414972409538, 9.226408400356329 1.5678781262446169, 9.391877738223654 1.7358116622593016" stroke="#000000" stroke-width="1" fill="none"></path></g><g><g transform="translate(76 823.5510204081634) rotate(0 103.55084200911224 1.5583067009598608)"><path d="M-0.4951181609183549 -0.6487456899136305 C34.06067384096483 -0.013022786503036787, 173.01653164637585 2.1991022088875374, 207.59680217914283 2.837989403679967 M1.4458060752600432 1.6250588775426151 C35.78536758931975 2.448904053444664, 171.78659189177057 3.3572076567759117, 206.43707785956562 3.7653590918332336" stroke="#000000" stroke-width="1" fill="none"></path></g><g transform="translate(76 823.5510204081634) rotate(0 103.55084200911224 1.5583067009598608)"><path d="M177.07216487463182 13.095062669473865 C185.40084562327084 8.9756765071774, 195.0812385086348 9.345047753792128, 207.59323098525405 4.432889198213815 M177.48458202845967 12.883495093430557 C183.76261585431882 10.94471564498783, 190.17048664955934 9.56746828178217, 206.12037989791483 4.43805224660784" stroke="#000000" stroke-width="1" fill="none"></path></g><g transform="translate(76 823.5510204081634) rotate(0 103.55084200911224 1.5583067009598608)"><path d="M177.2603178786 -7.425283351803098 C185.36148560601285 -4.941228680870074, 194.98132379633049 2.0323597153849464, 207.59323098525405 4.432889198213815 M177.67273503242785 -7.636850927846406 C183.95369641144802 -5.1170432961885535, 190.3206837688109 -2.035460483444303, 206.12037989791483 4.43805224660784" stroke="#000000" stroke-width="1" fill="none"></path></g></g><g><g transform="translate(449.42235646499375 823.7217282652991) rotate(0 94.57066503826178 1.0961712823157086)"><path d="M-0.6487456899136305 -0.40319782085716727 C30.795341778405703 0.1539023379329667, 156.24092503343124 1.946873340429776, 187.6881767931324 2.8474827918224492 M1.211524093542248 -1.6604806221462787 C33.091344797339985 -0.9443706854525878, 158.2418348241446 3.0333808640670408, 189.7900757664372 3.8528231867775773" stroke="#000000" stroke-width="1" fill="none"></path></g><g transform="translate(449.42235646499375 823.7217282652991) rotate(0 94.57066503826178 1.0961712823157086)"><path d="M160.64037502459087 11.351198668674634 C165.88844082746917 10.019942578710229, 175.7030331167334 10.472273791338498, 190.4576058728178 2.1985882838443374 M160.42880744854756 12.772735482164727 C169.7902383311733 10.193406430614932, 179.73755392082455 7.0977378091281444, 190.46276892121182 3.424097311794803" stroke="#000000" stroke-width="1" fill="none"></path></g><g transform="translate(449.42235646499375 823.7217282652991) rotate(0 94.57066503826178 1.0961712823157086)"><path d="M161.23815266810584 -9.161301526931773 C166.27088750121754 -6.010984179233351, 175.95478308215425 -1.0738478150276123, 190.4576058728178 2.1985882838443374 M161.02658509206253 -7.73976471344168 C170.16941772708313 -3.7313993947861634, 179.92463745576023 -0.23537555578195768, 190.46276892121182 3.424097311794803" stroke="#000000" stroke-width="1" fill="none"></path></g></g><g transform="translate(429 925.5510204081634) rotate(0 67.5 13)"><text x="0" y="18" font-family="Virgil, Segoe UI Emoji" font-size="20px" fill="#000000" text-anchor="start" style="white-space: pre;" direction="ltr">onclick(Player)</text></g><g transform="translate(647 812.0510204081634) rotate(0 12 12.5)"><path d="M1.8241603567765616 5.560757385842415 C1.8241603567765616 5.560757385842415, 1.8241603567765616 5.560757385842415, 1.8241603567765616 5.560757385842415 M1.8241603567765616 5.560757385842415 C1.8241603567765616 5.560757385842415, 1.8241603567765616 5.560757385842415, 1.8241603567765616 5.560757385842415 M0.5692490137265032 13.2756512657426 C4.261929200516876 7.902068157592209, 7.6537993341494115 5.823043361589526, 11.727174703542026 0.2250566548924795 M-0.4519325421108896 14.220769438954413 C2.7906281204592145 9.406206857626902, 5.724499113061199 6.323468754052274, 10.854236503455672 1.825200286440169 M3.4909620855968946 15.347089884695396 C5.233043677157735 13.374844963345964, 11.627618235174168 7.014889879820144, 14.539849445728876 -0.7932067853839699 M3.392353298425352 17.402324327160404 C7.471293123913638 12.541553276919888, 11.387466853146998 7.130173623401534, 15.565270324742713 1.2980440915121134 M5.743510988967937 19.175048852490146 C5.613871341034715 17.98326929857168, 12.501751639162787 14.943677983099178, 18.513621707984253 5.44731292614004 M4.754713299179894 20.921765093842406 C7.246094431595131 16.43069609183135, 11.258370856249009 13.575710714098879, 18.825158501581296 3.639876648981482 M7.807066438359486 24.099990776217513 C7.908562775430383 19.065716015412338, 13.116340699448202 17.214552938008744, 24.357787723291388 5.464686199065418 M5.977240803291368 24.586760403065913 C8.70315942260928 21.306449761256584, 12.938406882069309 17.202291450414794, 23.145501047011187 7.1745354775079795 M10.817888475514824 25.00999872170516 C14.609543778115299 19.883798714704188, 17.450161051243573 17.394471154145364, 23.02439745546001 9.80301003577923 M11.333921682581181 26.44893702183046 C14.81093587186271 22.42354460047599, 17.360538045001455 19.07650915974508, 23.550644067420244 10.253215968150549 M12.80451525850454 26.77099081956077 C16.447563851745798 23.99101545140629, 19.537762393066977 24.118585609492293, 26.68576774390546 13.648047930267627 M14.494538365819022 27.976403996937382 C17.780449576642578 24.835107513741555, 20.019202985117957 21.072400553860408, 25.353342265292454 15.637769801947275" stroke="#fa5252" stroke-width="0.5" fill="none"></path><path d="M8.334642167677695 -0.11255345931754235 C10.463867645310346 -1.2288391066611493, 14.181801180079061 -0.2650640283854607, 16.422505341966804 0.6649366669839569 C18.663209503854546 1.5949373623533747, 20.635511124761603 3.228367527151658, 21.778867139004152 5.467450712898963 C22.9222231532467 7.706533898646269, 23.6833555394262 11.300629887081735, 23.282641427422103 14.09943578146779 C22.881927315418007 16.898241675853846, 21.326418362979403 20.331500068763262, 19.374582466979586 22.26028607921529 C17.42274657097977 24.18907208966732, 14.171955117686844 25.553257084166933, 11.571626051423205 25.672151844179965 C8.971296985159567 25.791046604192996, 5.73744940447325 24.814843516693024, 3.772608069397757 22.973654639293475 C1.8077667343222634 21.132465761893926, 0.1032538387712929 17.531844930560702, -0.21742195902975503 14.625018579782667 C-0.538097756830803 11.71819222900463, 0.23102933306885287 7.71495776540592, 1.8485532825914692 5.53269653462526 C3.4660772321140856 3.3504353038446006, 8.393691787454303 2.200598607625391, 9.487721738105943 1.5314511950987093 C10.581751688757583 0.8623037825720273, 8.620296544779265 1.605257546183837, 8.412732986501307 1.517812059465168 M13.684126981974574 0.7368565835666452 C16.30456233266716 0.8508763625498078, 20.175748133104953 0.6258469979632966, 21.662556918757833 2.690303685370502 C23.149365704410712 4.754760372777707, 22.591371368634107 10.211032793374807, 22.604979695891856 13.123596708009877 C22.618588023149606 16.036160622644946, 23.29777771817778 18.04950949480713, 21.74420688230432 20.16568717318092 C20.190636046430857 22.28186485155471, 15.943403974239743 25.417693289329936, 13.283554680651077 25.820662778252625 C10.623705387062412 26.223632267175315, 7.985747075699015 23.75689340983005, 5.7851111207723225 22.58350410671705 C3.5844751658456304 21.410114803604053, 0.8095514728605343 20.85098941738278, 0.07973895109092588 18.780326959574644 C-0.6500735706786825 16.709664501766508, 0.31722499283614347 12.815462541770449, 1.4062359901546717 10.159529359868237 C2.4952469874732 7.503596177966026, 4.348443288745085 4.322491215144679, 6.613804935002095 2.844727868161371 C8.879166581259106 1.3669645211780626, 13.85293730982793 1.6899035408349112, 14.998405867696732 1.2929492779683862 C16.143874425565535 0.8959950151018612, 13.932481300988934 0.5090453601039089, 13.486616282214909 0.4630022909622209" stroke="#000000" stroke-width="1" fill="none"></path></g><g transform="translate(28 769.5510204081634) rotate(0 28.5 13)"><text x="0" y="18" font-family="Virgil, Segoe UI Emoji" font-size="20px" fill="#000000" text-anchor="start" style="white-space: pre;" direction="ltr">Start</text></g><g transform="translate(640 778.5510204081634) rotate(0 17 13)"><text x="0" y="18" font-family="Virgil, Segoe UI Emoji" font-size="20px" fill="#000000" text-anchor="start" style="white-space: pre;" direction="ltr">End</text></g><g><g transform="translate(419 923) rotate(0 -9.718780600801097 -16.440839699879234)"><path d="M-0.2645543653517961 0.09623010344803329 C-3.854000222558777 -5.311409801368912, -17.15749770787855 -25.905190338815252, -20.876676459982992 -31.24939983896911 M1.7974158634990456 -0.8988530375808478 C-1.90951035755376 -6.141136144225796, -16.993802873467406 -28.021838478470844, -21.234977065101265 -32.97790950320661" stroke="#000000" stroke-width="1" fill="none"></path></g><g transform="translate(419 923) rotate(0 -9.718780600801097 -16.440839699879234)"><path d="M-4.776243059010556 -20.61465331301836 C-9.610163328281491 -27.149751071128517, -16.562122949473242 -30.113149406763863, -22.613183006995673 -31.70299931813979 M-4.832443203148768 -22.91010869154058 C-9.366605474513527 -25.34708251885864, -12.915206166016135 -27.822855896572083, -21.97515656176118 -33.90312032646387" stroke="#000000" stroke-width="1" fill="none"></path></g><g transform="translate(419 923) rotate(0 -9.718780600801097 -16.440839699879234)"><path d="M-15.369055434742002 -12.6024865735626 C-16.522412418696113 -21.95854952205584, -19.713924808835827 -27.766266171035536, -22.613183006995673 -31.70299931813979 M-15.425255578880215 -14.897941952084823 C-17.54305586586526 -19.22074428448916, -18.628662942692042 -23.559471032754953, -21.97515656176118 -33.90312032646387" stroke="#000000" stroke-width="1" fill="none"></path></g></g></svg>